<svg width="30" height="30" viewBox="0 0 30 30" fill="none" xmlns="http://www.w3.org/2000/svg">
<circle cx="15" cy="15" r="15" transform="rotate(-180 15 15)" fill="black" fill-opacity="0.5"/>
<path d="M11.1688 14.6158L18.0202 8.15832C18.2447 7.94687 18.6081 7.94722 18.8322 8.15941C19.0561 8.37157 19.0556 8.71525 18.831 8.92686L12.3875 15L18.8313 21.0732C19.0558 21.2848 19.0563 21.6283 18.8324 21.8404C18.7201 21.9468 18.5729 22 18.4257 22C18.2789 22 18.1324 21.9472 18.0202 21.8415L11.1688 15.3842C11.0607 15.2825 11 15.1442 11 15C11 14.8559 11.0608 14.7177 11.1688 14.6158Z" fill="white"/>
</svg>
