<svg width="80" height="80" viewBox="0 0 80 80" fill="none" xmlns="http://www.w3.org/2000/svg">
<path d="M40 80C39.6296 80 39.1975 80 38.8272 80L46.9753 57.5309H58.2099C60.1852 57.5309 62.3457 55.9877 63.0247 54.1358L71.9136 29.7531C73.3951 25.7407 71.0494 22.4691 66.8519 22.4691H51.2346L38.1481 58.5185L30.7407 78.9506C13.1481 74.7531 0 58.9506 0 40C0 21.6667 12.3457 6.17284 29.1975 1.48148L21.5432 22.5309L8.82716 57.5309H17.2839L28.0864 27.7778H34.4444L23.642 57.5309H32.0988L42.2222 29.8148C43.7037 25.8025 41.4198 22.5309 37.1605 22.5309H30L38.2099 0.0617275C38.8272 0.0617275 39.3827 0 40 0C62.0988 0 80 17.9012 80 40C80 62.0988 62.0988 80 40 80ZM64.1975 27.7778H57.8395L48.8889 52.2839H55.2469L64.1975 27.7778Z" fill="white"/>
</svg>
