<svg width="50" height="50" viewBox="0 0 50 50" fill="none" xmlns="http://www.w3.org/2000/svg">
<path d="M25 50C24.7685 50 24.4985 50 24.267 50L29.3596 35.9568H36.3812C37.6157 35.9568 38.966 34.9923 39.3904 33.8349L44.946 18.5957C45.8719 16.088 44.4059 14.0432 41.7824 14.0432H32.0216L23.8426 36.5741L19.213 49.3441C8.21759 46.7207 0 36.8441 0 25C0 13.5417 7.71605 3.85802 18.2485 0.925925L13.4645 14.0818L5.51697 35.9568H10.8025L17.554 17.3611H21.5278L14.7762 35.9568H20.0617L26.3889 18.6343C27.3148 16.1265 25.8873 14.0818 23.2253 14.0818H18.75L23.8812 0.0385797C24.267 0.0385797 24.6142 0 25 0C38.8117 0 50 11.1883 50 25C50 38.8117 38.8117 50 25 50ZM40.1235 17.3611H36.1497L30.5556 32.6775H34.5293L40.1235 17.3611Z" fill="#0096D6"/>
</svg>
